:FULLY-SPECIFIED
:FORCE-ALL-JOINTS-BE-3DOF
:DEGREES
2752
root -5.559 13.9753 -28.4071 1242 -65.4881 -161.137
lfemur -59.6177 42.9998 -6.60274
ltibia 67.8989 0 0
lfoot -2.43896 -1.56525 0
ltoes -31.5748 0 0
rfemur -30.8106 -18.7141 21.5963
rtibia 81.866 0 0
rfoot -35.2584 -24.75 0
rtoes -13.9333 0 0
lowerback 15.6667 5.79914 0.491115
upperback -4.01752 8.07856 1.4492
thorax -13.4247 3.78607 -0.844322
lowerneck -2.49027 9.60068 2.10698
upperneck 7.69873 12.5515 1.93281
head 2.89222 6.33604 0.677191
lclavicle -6.93634e-14 -1.82882e-14 0
lhumerus 3.65819 10.5334 84.1427
lradius 94.6518 0 0
lwrist -18.716 0 0
lhand -39.7287 388.035 0
lfingers 7.12502 0 0
lthumb -12.7062 -662.371 0
rclavicle -6.93634e-14 -1.82882e-14 0
rhumerus -57.8841 50.9998 -110.268
rradius 114.084 0 0
rwrist -84.7016 0 0
rhand 4.82202 -386.895 0
rfingers 7.12502 0 0
rthumb 30.2002 305.554 0
2753
root -5.56817 13.9642 -28.4139 1242.06 -65.487 -161.191
lfemur -59.6894 43.0615 -6.60087
ltibia 68.0564 0 0
lfoot -2.50787 -1.60099 0
ltoes -31.6407 0 0
rfemur -30.8177 -18.7252 21.5686
rtibia 81.9885 0 0
rfoot -35.368 -24.781 0
rtoes -13.9363 0 0
lowerback 15.6413 5.80138 0.474195
upperback -4.03446 8.07849 1.44974
thorax -13.4318 3.7875 -0.832862
lowerneck -2.48857 9.60282 2.10736
upperneck 7.7141 12.5543 1.93084
head 2.89734 6.33737 0.677154
lclavicle -6.34501e-14 -1.74931e-14 0
lhumerus 3.63625 10.5759 84.1188
lradius 94.6655 0 0
lwrist -18.7281 0 0
lhand -39.7269 388.03 0
lfingers 7.12502 0 0
lthumb -12.7045 -662.376 0
rclavicle -6.34501e-14 -1.74931e-14 0
rhumerus -57.9034 50.9911 -110.285
rradius 114.081 0 0
rwrist -84.6874 0 0
rhand 4.84548 -386.878 0
rfingers 7.12502 0 0
rthumb 30.2226 305.575 0
2754
root -5.57734 13.9531 -28.4207 1242.11 -65.4859 -161.245
lfemur -59.7611 43.1231 -6.599
ltibia 68.2139 0 0
lfoot -2.57678 -1.63672 0
ltoes -31.7067 0 0
rfemur -30.8249 -18.7362 21.541
rtibia 82.1109 0 0
rfoot -35.4776 -24.8119 0
rtoes -13.9392 0 0
lowerback 15.6159 5.80363 0.457276
upperback -4.05139 8.07841 1.45028
thorax -13.4388 3.78894 -0.821402
lowerneck -2.48687 9.60496 2.10775
upperneck 7.72948 12.5571 1.92887
head 2.90245 6.3387 0.677118
lclavicle -5.75369e-14 -1.66979e-14 0
lhumerus 3.6143 10.6184 84.0948
lradius 94.6792 0 0
lwrist -18.7401 0 0
lhand -39.7251 388.025 0
lfingers 7.12502 0 0
lthumb -12.7027 -662.381 0
rclavicle -5.75369e-14 -1.66979e-14 0
rhumerus -57.9226 50.9825 -110.302
rradius 114.078 0 0
rwrist -84.6732 0 0
rhand 4.86894 -386.861 0
rfingers 7.12502 0 0
rthumb 30.245 305.596 0
2755
root -5.58651 13.942 -28.4276 1242.17 -65.4848 -161.299
lfemur -59.8328 43.1848 -6.59714
ltibia 68.3714 0 0
lfoot -2.64568 -1.67246 0
ltoes -31.7726 0 0
rfemur -30.832 -18.7473 21.5133
rtibia 82.2334 0 0
rfoot -35.5871 -24.8429 0
rtoes -13.9422 0 0
lowerback 15.5905 5.80587 0.440356
upperback -4.06833 8.07834 1.45082
thorax -13.4459 3.79037 -0.809941
lowerneck -2.48517 9.6071 2.10813
upperneck 7.74485 12.5599 1.9269
head 2.90757 6.34003 0.677081
lclavicle -5.16236e-14 -1.59028e-14 0
lhumerus 3.59236 10.661 84.0709
lradius 94.693 0 0
lwrist -18.7522 0 0
lhand -39.7233 388.02 0
lfingers 7.12502 0 0
lthumb -12.701 -662.386 0
rclavicle -5.16236e-14 -1.59028e-14 0
rhumerus -57.9419 50.9738 -110.319
rradius 114.075 0 0
rwrist -84.659 0 0
rhand 4.89241 -386.844 0
rfingers 7.12502 0 0
rthumb 30.2673 305.617 0
2756
root -5.59568 13.931 -28.4344 1242.22 -65.4837 -161.354
lfemur -59.9045 43.2464 -6.59527
ltibia 68.5289 0 0
lfoot -2.71459 -1.70819 0
ltoes -31.8386 0 0
rfemur -30.8391 -18.7583 21.4856
rtibia 82.3558 0 0
rfoot -35.6967 -24.8738 0
rtoes -13.9451 0 0
lowerback 15.5651 5.80812 0.423437
upperback -4.08527 8.07827 1.45137
thorax -13.4529 3.7918 -0.798481
lowerneck -2.48347 9.60924 2.10851
upperneck 7.76023 12.5626 1.92494
head 2.91269 6.34136 0.677045
lclavicle -4.57104e-14 -1.51076e-14 0
lhumerus 3.57042 10.7035 84.0469
lradius 94.7067 0 0
lwrist -18.7643 0 0
lhand -39.7215 388.014 0
lfingers 7.12502 0 0
lthumb -12.6993 -662.391 0
rclavicle -4.57104e-14 -1.51076e-14 0
rhumerus -57.9612 50.9651 -110.336
rradius 114.072 0 0
rwrist -84.6448 0 0
rhand 4.91587 -386.827 0
rfingers 7.12502 0 0
rthumb 30.2897 305.639 0
2757
root -5.60485 13.9199 -28.4412 1242.28 -65.4826 -161.408
lfemur -59.9762 43.3081 -6.5934
ltibia 68.6864 0 0
lfoot -2.7835 -1.74393 0
ltoes -31.9045 0 0
rfemur -30.8463 -18.7694 21.458
rtibia 82.4783 0 0
rfoot -35.8063 -24.9048 0
rtoes -13.9481 0 0
lowerback 15.5397 5.81036 0.406517
upperback -4.10221 8.0782 1.45191
thorax -13.46 3.79323 -0.787021
lowerneck -2.48177 9.61138 2.10889
upperneck 7.7756 12.5654 1.92297
head 2.9178 6.34269 0.677008
lclavicle -3.97971e-14 -1.43125e-14 0
lhumerus 3.54847 10.746 84.023
lradius 94.7204 0 0
lwrist -18.7763 0 0
lhand -39.7197 388.009 0
lfingers 7.12502 0 0
lthumb -12.6975 -662.396 0
rclavicle -3.97971e-14 -1.43125e-14 0
rhumerus -57.9804 50.9565 -110.353
rradius 114.069 0 0
rwrist -84.6306 0 0
rhand 4.93933 -386.81 0
rfingers 7.12502 0 0
rthumb 30.3121 305.66 0
2758
root -5.61402 13.9088 -28.448 1242.34 -65.4815 -161.462
lfemur -60.0479 43.3698 -6.59153
ltibia 68.844 0 0
lfoot -2.85241 -1.77966 0
ltoes -31.9704 0 0
rfemur -30.8534 -18.7804 21.4303
rtibia 82.6008 0 0
rfoot -35.9159 -24.9357 0
rtoes -13.951 0 0
lowerback 15.5143 5.8126 0.389598
upperback -4.11914 8.07812 1.45245
thorax -13.467 3.79467 -0.775561
lowerneck -2.48007 9.61352 2.10928
upperneck 7.79098 12.5682 1.921
head 2.92292 6.34403 0.676972
lclavicle -3.38839e-14 -1.35174e-14 0
lhumerus 3.52653 10.7885 83.999
lradius 94.7341 0 0
lwrist -18.7884 0 0
lhand -39.7179 388.004 0
lfingers 7.12502 0 0
lthumb -12.6958 -662.401 0
rclavicle -3.38839e-14 -1.35174e-14 0
rhumerus -57.9997 50.9478 -110.369
rradius 114.066 0 0
rwrist -84.6163 0 0
rhand 4.96279 -386.793 0
rfingers 7.12502 0 0
rthumb 30.3345 305.681 0
2759
root -5.62319 13.8977 -28.4548 1242.39 -65.4804 -161.516
lfemur -60.1196 43.4314 -6.58966
ltibia 69.0015 0 0
lfoot -2.92131 -1.8154 0
ltoes -32.0364 0 0
rfemur -30.8605 -18.7915 21.4026
rtibia 82.7232 0 0
rfoot -36.0255 -24.9667 0
rtoes -13.954 0 0
lowerback 15.4889 5.81485 0.372678
upperback -4.13608 8.07805 1.45299
thorax -13.4741 3.7961 -0.7641
lowerneck -2.47837 9.61566 2.10966
upperneck 7.80635 12.571 1.91903
head 2.92804 6.34536 0.676935
lclavicle -2.79706e-14 -1.27222e-14 0
lhumerus 3.50459 10.831 83.9751
lradius 94.7478 0 0
lwrist -18.8005 0 0
lhand -39.7161 387.999 0
lfingers 7.12502 0 0
lthumb -12.6941 -662.406 0
rclavicle -2.79706e-14 -1.27222e-14 0
rhumerus -58.019 50.9391 -110.386
rradius 114.063 0 0
rwrist -84.6021 0 0
rhand 4.98625 -386.776 0
rfingers 7.12502 0 0
rthumb 30.3568 305.702 0
2760
root -5.63236 13.8866 -28.4617 1242.45 -65.4793 -161.57
lfemur -60.1913 43.4931 -6.5878
ltibia 69.159 0 0
lfoot -2.99022 -1.85114 0
ltoes -32.1023 0 0
rfemur -30.8677 -18.8025 21.375
rtibia 82.8457 0 0
rfoot -36.135 -24.9977 0
rtoes -13.957 0 0
lowerback 15.4635 5.81709 0.355758
upperback -4.15302 8.07798 1.45353
thorax -13.4811 3.79753 -0.75264
lowerneck -2.47667 9.6178 2.11004
upperneck 7.82172 12.5738 1.91706
head 2.93315 6.34669 0.676899
lclavicle -2.20574e-14 -1.19271e-14 0
lhumerus 3.48264 10.8736 83.9511
lradius 94.7616 0 0
lwrist -18.8125 0 0
lhand -39.7143 387.994 0
lfingers 7.12502 0 0
lthumb -12.6923 -662.411 0
rclavicle -2.20574e-14 -1.19271e-14 0
rhumerus -58.0382 50.9305 -110.403
rradius 114.06 0 0
rwrist -84.5879 0 0
rhand 5.00972 -386.759 0
rfingers 7.12502 0 0
rthumb 30.3792 305.723 0
2761
root -5.64153 13.8755 -28.4685 1242.51 -65.4782 -161.624
lfemur -60.263 43.5548 -6.58593
ltibia 69.3165 0 0
lfoot -3.05913 -1.88687 0
ltoes -32.1682 0 0
rfemur -30.8748 -18.8136 21.3473
rtibia 82.9682 0 0
rfoot -36.2446 -25.0286 0
rtoes -13.9599 0 0
lowerback 15.4381 5.81933 0.338839
upperback -4.16995 8.0779 1.45407
thorax -13.4882 3.79897 -0.74118
lowerneck -2.47497 9.61994 2.11043
upperneck 7.8371 12.5766 1.91509
head 2.93827 6.34802 0.676862
lclavicle -1.61441e-14 -1.11319e-14 0
lhumerus 3.4607 10.9161 83.9272
lradius 94.7753 0 0
lwrist -18.8246 0 0
lhand -39.7125 387.989 0
lfingers 7.12502 0 0
lthumb -12.6906 -662.416 0
rclavicle -1.61441e-14 -1.11319e-14 0
rhumerus -58.0575 50.9218 -110.42
rradius 114.057 0 0
rwrist -84.5737 0 0
rhand 5.03318 -386.742 0
rfingers 7.12502 0 0
rthumb 30.4016 305.744 0
